<svg width="151" height="47" viewBox="0 0 151 47" fill="none" xmlns="http://www.w3.org/2000/svg">
<rect width="151" height="47" rx="10" fill="black"/>
<path d="M15.472 29V17.992H19.072C20 17.992 20.7573 18.04 21.344 18.136C21.9413 18.2213 22.4107 18.3813 22.752 18.616C23.0933 18.8507 23.3387 19.176 23.488 19.592C23.648 20.008 23.7493 20.536 23.792 21.176C23.8347 21.816 23.856 22.5893 23.856 23.496C23.856 24.4027 23.8347 25.176 23.792 25.816C23.7493 26.456 23.648 26.984 23.488 27.4C23.3387 27.816 23.0933 28.1413 22.752 28.376C22.4107 28.6107 21.9413 28.776 21.344 28.872C20.7573 28.9573 20 29 19.072 29H15.472ZM17.28 27.464H18.912C19.5093 27.464 20 27.4533 20.384 27.432C20.7787 27.4 21.088 27.3253 21.312 27.208C21.536 27.08 21.7013 26.8773 21.808 26.6C21.9147 26.3227 21.9787 25.9333 22 25.432C22.032 24.92 22.048 24.2747 22.048 23.496C22.048 22.7173 22.032 22.0773 22 21.576C21.9787 21.0747 21.9093 20.6853 21.792 20.408C21.6853 20.12 21.5147 19.9173 21.28 19.8C21.056 19.672 20.752 19.5973 20.368 19.576C19.984 19.544 19.4987 19.528 18.912 19.528H17.28V27.464ZM29.5608 29.128C28.8781 29.128 28.3074 29.0853 27.8488 29C27.4008 28.9147 27.0434 28.7813 26.7768 28.6C26.5208 28.408 26.3288 28.152 26.2008 27.832C26.0834 27.512 26.0034 27.112 25.9608 26.632C25.9288 26.152 25.9128 25.576 25.9128 24.904C25.9128 24.2427 25.9288 23.672 25.9608 23.192C26.0034 22.712 26.0834 22.312 26.2008 21.992C26.3288 21.672 26.5208 21.4213 26.7768 21.24C27.0434 21.048 27.4008 20.9147 27.8488 20.84C28.3074 20.7547 28.8781 20.712 29.5608 20.712C30.2541 20.712 30.8248 20.7547 31.2728 20.84C31.7314 20.9147 32.0888 21.048 32.3448 21.24C32.6114 21.4213 32.8034 21.672 32.9208 21.992C33.0488 22.312 33.1288 22.712 33.1608 23.192C33.2034 23.672 33.2248 24.2427 33.2248 24.904C33.2248 25.576 33.2034 26.152 33.1608 26.632C33.1288 27.112 33.0488 27.512 32.9208 27.832C32.8034 28.152 32.6114 28.408 32.3448 28.6C32.0888 28.7813 31.7314 28.9147 31.2728 29C30.8248 29.0853 30.2541 29.128 29.5608 29.128ZM29.5608 27.704C30.0514 27.704 30.4301 27.672 30.6968 27.608C30.9634 27.544 31.1501 27.416 31.2568 27.224C31.3741 27.032 31.4434 26.7493 31.4648 26.376C31.4968 26.0027 31.5128 25.512 31.5128 24.904C31.5128 24.296 31.4968 23.8107 31.4648 23.448C31.4434 23.0747 31.3741 22.792 31.2568 22.6C31.1501 22.408 30.9634 22.2853 30.6968 22.232C30.4301 22.168 30.0514 22.136 29.5608 22.136C29.0808 22.136 28.7074 22.168 28.4408 22.232C28.1741 22.2853 27.9821 22.408 27.8648 22.6C27.7581 22.792 27.6888 23.0747 27.6568 23.448C27.6354 23.8107 27.6248 24.296 27.6248 24.904C27.6248 25.512 27.6354 26.0027 27.6568 26.376C27.6888 26.7493 27.7581 27.032 27.8648 27.224C27.9821 27.416 28.1741 27.544 28.4408 27.608C28.7074 27.672 29.0808 27.704 29.5608 27.704ZM36.9116 29L34.4476 20.84H36.1916L37.9196 27.048H38.0316L39.8396 20.84H41.4236L43.2156 27.048H43.3436L45.0556 20.84H46.7676L44.2876 29H42.2716L40.6556 23.624H40.5276L38.9436 29H36.9116ZM48.4671 29V20.84H50.0351L50.0831 21.928H50.2111C50.3391 21.6613 50.5098 21.4427 50.7231 21.272C50.9365 21.0907 51.2138 20.952 51.5551 20.856C51.8965 20.76 52.3125 20.712 52.8031 20.712C53.3791 20.712 53.8431 20.7813 54.1951 20.92C54.5471 21.048 54.8138 21.2453 54.9951 21.512C55.1765 21.7787 55.2991 22.1093 55.3631 22.504C55.4378 22.8987 55.4751 23.3627 55.4751 23.896V29H53.7631V24.568C53.7631 24.0347 53.7418 23.6133 53.6991 23.304C53.6671 22.984 53.5925 22.7493 53.4751 22.6C53.3578 22.44 53.1818 22.3387 52.9471 22.296C52.7231 22.2533 52.4191 22.232 52.0351 22.232C51.6085 22.232 51.2671 22.2853 51.0111 22.392C50.7658 22.4987 50.5791 22.6587 50.4511 22.872C50.3338 23.0853 50.2538 23.352 50.2111 23.672C50.1791 23.992 50.1631 24.3653 50.1631 24.792V29H48.4671ZM57.9984 29V17.112H59.6944V29H57.9984ZM65.5451 29.128C64.8625 29.128 64.2918 29.0853 63.8331 29C63.3851 28.9147 63.0278 28.7813 62.7611 28.6C62.5051 28.408 62.3131 28.152 62.1851 27.832C62.0678 27.512 61.9878 27.112 61.9451 26.632C61.9131 26.152 61.8971 25.576 61.8971 24.904C61.8971 24.2427 61.9131 23.672 61.9451 23.192C61.9878 22.712 62.0678 22.312 62.1851 21.992C62.3131 21.672 62.5051 21.4213 62.7611 21.24C63.0278 21.048 63.3851 20.9147 63.8331 20.84C64.2918 20.7547 64.8625 20.712 65.5451 20.712C66.2385 20.712 66.8091 20.7547 67.2571 20.84C67.7158 20.9147 68.0731 21.048 68.3291 21.24C68.5958 21.4213 68.7878 21.672 68.9051 21.992C69.0331 22.312 69.1131 22.712 69.1451 23.192C69.1878 23.672 69.2091 24.2427 69.2091 24.904C69.2091 25.576 69.1878 26.152 69.1451 26.632C69.1131 27.112 69.0331 27.512 68.9051 27.832C68.7878 28.152 68.5958 28.408 68.3291 28.6C68.0731 28.7813 67.7158 28.9147 67.2571 29C66.8091 29.0853 66.2385 29.128 65.5451 29.128ZM65.5451 27.704C66.0358 27.704 66.4145 27.672 66.6811 27.608C66.9478 27.544 67.1345 27.416 67.2411 27.224C67.3585 27.032 67.4278 26.7493 67.4491 26.376C67.4811 26.0027 67.4971 25.512 67.4971 24.904C67.4971 24.296 67.4811 23.8107 67.4491 23.448C67.4278 23.0747 67.3585 22.792 67.2411 22.6C67.1345 22.408 66.9478 22.2853 66.6811 22.232C66.4145 22.168 66.0358 22.136 65.5451 22.136C65.0651 22.136 64.6918 22.168 64.4251 22.232C64.1585 22.2853 63.9665 22.408 63.8491 22.6C63.7425 22.792 63.6731 23.0747 63.6411 23.448C63.6198 23.8107 63.6091 24.296 63.6091 24.904C63.6091 25.512 63.6198 26.0027 63.6411 26.376C63.6731 26.7493 63.7425 27.032 63.8491 27.224C63.9665 27.416 64.1585 27.544 64.4251 27.608C64.6918 27.672 65.0651 27.704 65.5451 27.704ZM73.5003 29.128C72.9456 29.128 72.4763 29.0533 72.0923 28.904C71.7189 28.7547 71.4363 28.5093 71.2443 28.168C71.0523 27.816 70.9563 27.3413 70.9563 26.744C70.9563 26.1147 71.0309 25.6187 71.1803 25.256C71.3296 24.8827 71.5856 24.616 71.9483 24.456C72.3109 24.296 72.8229 24.216 73.4843 24.216C73.5909 24.216 73.7456 24.2213 73.9483 24.232C74.1616 24.232 74.4016 24.2373 74.6683 24.248C74.9456 24.248 75.2176 24.2533 75.4843 24.264C75.7616 24.264 76.0123 24.2693 76.2363 24.28V23.896C76.2363 23.48 76.2096 23.1547 76.1563 22.92C76.1029 22.6853 75.9909 22.5147 75.8203 22.408C75.6603 22.2907 75.4256 22.216 75.1163 22.184C74.8069 22.152 74.4069 22.136 73.9163 22.136C73.6816 22.136 73.4043 22.1467 73.0843 22.168C72.7749 22.1787 72.4709 22.1947 72.1723 22.216C71.8736 22.2373 71.6443 22.264 71.4843 22.296V20.952C71.9216 20.8667 72.4016 20.808 72.9243 20.776C73.4469 20.7333 73.9696 20.712 74.4923 20.712C75.1003 20.712 75.6069 20.7493 76.0123 20.824C76.4283 20.8987 76.7643 21.016 77.0203 21.176C77.2763 21.336 77.4683 21.544 77.5963 21.8C77.7243 22.056 77.8149 22.3653 77.8683 22.728C77.9216 23.08 77.9483 23.4853 77.9483 23.944V29H76.3803L76.3163 27.944H76.2203C76.0389 28.2853 75.7936 28.5467 75.4843 28.728C75.1856 28.8987 74.8603 29.0053 74.5083 29.048C74.1563 29.1013 73.8203 29.128 73.5003 29.128ZM74.2523 27.752C74.5189 27.752 74.7589 27.736 74.9723 27.704C75.1963 27.6613 75.3883 27.5973 75.5483 27.512C75.7189 27.416 75.8523 27.288 75.9483 27.128C76.0443 26.9467 76.1136 26.7387 76.1563 26.504C76.2096 26.2693 76.2363 25.992 76.2363 25.672V25.384H73.9003C73.5483 25.384 73.2763 25.4107 73.0843 25.464C72.9029 25.5173 72.7803 25.6293 72.7163 25.8C72.6523 25.9707 72.6203 26.232 72.6203 26.584C72.6203 26.9147 72.6576 27.1653 72.7323 27.336C72.8069 27.496 72.9616 27.608 73.1963 27.672C73.4416 27.7253 73.7936 27.752 74.2523 27.752ZM83.0748 29.128C82.5308 29.128 82.0721 29.064 81.6988 28.936C81.3254 28.7973 81.0268 28.5733 80.8028 28.264C80.5788 27.944 80.4134 27.512 80.3068 26.968C80.2108 26.424 80.1628 25.7467 80.1628 24.936C80.1628 24.1147 80.2108 23.432 80.3068 22.888C80.4134 22.344 80.5734 21.9173 80.7868 21.608C81.0108 21.288 81.3041 21.0587 81.6668 20.92C82.0294 20.7813 82.4774 20.712 83.0108 20.712C83.4054 20.712 83.7628 20.744 84.0828 20.808C84.4028 20.872 84.6854 20.984 84.9308 21.144C85.1868 21.2933 85.3894 21.512 85.5388 21.8H85.6508V17.112H87.3468V29H85.7788L85.7148 27.928H85.6188C85.4588 28.2693 85.2401 28.5253 84.9628 28.696C84.6961 28.8667 84.3974 28.9787 84.0668 29.032C83.7361 29.096 83.4054 29.128 83.0748 29.128ZM83.7628 27.624C84.2321 27.624 84.5948 27.5653 84.8508 27.448C85.1174 27.32 85.3041 27.1227 85.4108 26.856C85.5174 26.6107 85.5814 26.328 85.6028 26.008C85.6348 25.688 85.6508 25.3147 85.6508 24.888C85.6508 24.4827 85.6348 24.1307 85.6028 23.832C85.5814 23.5227 85.5228 23.2613 85.4268 23.048C85.3094 22.76 85.1174 22.552 84.8508 22.424C84.5948 22.296 84.2321 22.232 83.7628 22.232C83.3361 22.232 82.9948 22.264 82.7388 22.328C82.4934 22.3813 82.3068 22.4987 82.1788 22.68C82.0614 22.8507 81.9814 23.1173 81.9388 23.48C81.8961 23.832 81.8748 24.312 81.8748 24.92C81.8748 25.528 81.8961 26.0133 81.9388 26.376C81.9814 26.728 82.0668 26.9947 82.1948 27.176C82.3228 27.3573 82.5094 27.48 82.7548 27.544C83.0108 27.5973 83.3468 27.624 83.7628 27.624ZM98.0848 29.128C97.2954 29.128 96.6341 29.08 96.1008 28.984C95.5674 28.8773 95.1301 28.7013 94.7888 28.456C94.4581 28.2107 94.2021 27.88 94.0208 27.464C93.8501 27.0373 93.7328 26.4987 93.6688 25.848C93.6048 25.1973 93.5728 24.4133 93.5728 23.496C93.5728 22.5787 93.6048 21.7947 93.6688 21.144C93.7328 20.4933 93.8501 19.96 94.0208 19.544C94.2021 19.1173 94.4581 18.7813 94.7888 18.536C95.1301 18.2907 95.5674 18.12 96.1008 18.024C96.6341 17.9173 97.2954 17.864 98.0848 17.864C98.3941 17.864 98.7088 17.8747 99.0288 17.896C99.3594 17.9173 99.6741 17.9493 99.9728 17.992C100.271 18.024 100.527 18.0667 100.741 18.12V19.56C100.474 19.528 100.207 19.5013 99.9408 19.48C99.6848 19.448 99.4341 19.4267 99.1888 19.416C98.9434 19.4053 98.7301 19.4 98.5488 19.4C97.9621 19.4 97.4768 19.4213 97.0928 19.464C96.7088 19.5067 96.3994 19.6027 96.1648 19.752C95.9408 19.9013 95.7701 20.1253 95.6528 20.424C95.5461 20.712 95.4714 21.1067 95.4288 21.608C95.3968 22.1093 95.3808 22.7387 95.3808 23.496C95.3808 24.2427 95.3968 24.872 95.4288 25.384C95.4714 25.8853 95.5461 26.2853 95.6528 26.584C95.7701 26.872 95.9408 27.0907 96.1648 27.24C96.3994 27.3893 96.7088 27.4853 97.0928 27.528C97.4768 27.5707 97.9621 27.592 98.5488 27.592C98.9008 27.592 99.2848 27.576 99.7008 27.544C100.127 27.512 100.495 27.4747 100.805 27.432V28.904C100.57 28.9467 100.293 28.984 99.9728 29.016C99.6634 29.048 99.3434 29.0747 99.0128 29.096C98.6928 29.1173 98.3834 29.128 98.0848 29.128ZM104.825 29L101.993 20.84H103.769L105.881 27.336H106.009L108.089 20.84H109.833L107.033 29H104.825Z" fill="white"/>
<path d="M121 28.5V30.5C121 31.0304 121.211 31.5391 121.586 31.9142C121.961 32.2893 122.47 32.5 123 32.5H135C135.53 32.5 136.039 32.2893 136.414 31.9142C136.789 31.5391 137 31.0304 137 30.5V28.5M124 22.5L129 27.5M129 27.5L134 22.5M129 27.5V15.5" stroke="white" stroke-width="2" stroke-linecap="round" stroke-linejoin="round"/>
</svg>
